<svg width="108" height="108" viewBox="0 0 108 108" fill="none" xmlns="http://www.w3.org/2000/svg">
<g filter="url(#filter0_d_2908_2)">
<rect x="6" y="2" width="96" height="96" rx="8" fill="white" stroke="#11001F" stroke-width="4"/>
<path d="M33.208 47.384C30.616 47.384 28.232 46.968 26.056 46.136C23.88 45.272 21.992 44.072 20.392 42.536C18.792 40.968 17.544 39.144 16.648 37.064C15.752 34.984 15.304 32.696 15.304 30.2C15.304 27.704 15.752 25.416 16.648 23.336C17.544 21.256 18.792 19.448 20.392 17.912C22.024 16.344 23.928 15.144 26.104 14.312C28.28 13.448 30.68 13.016 33.304 13.016C35.96 13.016 38.392 13.448 40.6 14.312C42.808 15.176 44.68 16.472 46.216 18.2L43.24 21.176C41.864 19.832 40.36 18.856 38.728 18.248C37.128 17.608 35.384 17.288 33.496 17.288C31.576 17.288 29.784 17.608 28.12 18.248C26.488 18.888 25.064 19.784 23.848 20.936C22.664 22.088 21.736 23.464 21.064 25.064C20.424 26.632 20.104 28.344 20.104 30.2C20.104 32.024 20.424 33.736 21.064 35.336C21.736 36.904 22.664 38.28 23.848 39.464C25.064 40.616 26.488 41.512 28.12 42.152C29.752 42.792 31.528 43.112 33.448 43.112C35.24 43.112 36.952 42.84 38.584 42.296C40.248 41.72 41.784 40.776 43.192 39.464L45.928 43.112C44.264 44.52 42.312 45.592 40.072 46.328C37.864 47.032 35.576 47.384 33.208 47.384ZM41.32 42.488V30.008H45.928V43.112L41.32 42.488Z" fill="#11001F"/>
</g>
<defs>
<filter id="filter0_d_2908_2" x="0" y="0" width="108" height="108" filterUnits="userSpaceOnUse" color-interpolation-filters="sRGB">
<feFlood flood-opacity="0" result="BackgroundImageFix"/>
<feColorMatrix in="SourceAlpha" type="matrix" values="0 0 0 0 0 0 0 0 0 0 0 0 0 0 0 0 0 0 127 0" result="hardAlpha"/>
<feOffset dy="4"/>
<feGaussianBlur stdDeviation="2"/>
<feComposite in2="hardAlpha" operator="out"/>
<feColorMatrix type="matrix" values="0 0 0 0 0 0 0 0 0 0 0 0 0 0 0 0 0 0 0.25 0"/>
<feBlend mode="normal" in2="BackgroundImageFix" result="effect1_dropShadow_2908_2"/>
<feBlend mode="normal" in="SourceGraphic" in2="effect1_dropShadow_2908_2" result="shape"/>
</filter>
</defs>
</svg>
