<svg width="100" height="100" viewBox="0 0 100 100" fill="none" xmlns="http://www.w3.org/2000/svg">
<rect x="0.5" y="0.5" width="99" height="99" rx="9.5" fill="white" stroke="black"/>
<path d="M29.208 47.384C26.616 47.384 24.232 46.968 22.056 46.136C19.88 45.272 17.992 44.072 16.392 42.536C14.792 40.968 13.544 39.144 12.648 37.064C11.752 34.984 11.304 32.696 11.304 30.2C11.304 27.704 11.752 25.416 12.648 23.336C13.544 21.256 14.792 19.448 16.392 17.912C18.024 16.344 19.928 15.144 22.104 14.312C24.28 13.448 26.68 13.016 29.304 13.016C31.96 13.016 34.392 13.448 36.6 14.312C38.808 15.176 40.68 16.472 42.216 18.2L39.24 21.176C37.864 19.832 36.36 18.856 34.728 18.248C33.128 17.608 31.384 17.288 29.496 17.288C27.576 17.288 25.784 17.608 24.12 18.248C22.488 18.888 21.064 19.784 19.848 20.936C18.664 22.088 17.736 23.464 17.064 25.064C16.424 26.632 16.104 28.344 16.104 30.2C16.104 32.024 16.424 33.736 17.064 35.336C17.736 36.904 18.664 38.28 19.848 39.464C21.064 40.616 22.488 41.512 24.12 42.152C25.752 42.792 27.528 43.112 29.448 43.112C31.24 43.112 32.952 42.84 34.584 42.296C36.248 41.72 37.784 40.776 39.192 39.464L41.928 43.112C40.264 44.52 38.312 45.592 36.072 46.328C33.864 47.032 31.576 47.384 29.208 47.384ZM37.32 42.488V30.008H41.928V43.112L37.32 42.488Z" fill="black"/>
</svg>
